<?xml version="1.0" standalone="no"?>
<!DOCTYPE svg PUBLIC "-//W3C//DTD SVG 20010904//EN"
 "http://www.w3.org/TR/2001/REC-SVG-20010904/DTD/svg10.dtd">
<svg version="1.0" xmlns="http://www.w3.org/2000/svg"
 width="449.000000pt" height="239.000000pt" viewBox="0 0 449.000000 239.000000"
 preserveAspectRatio="xMidYMid meet">

<g transform="translate(0.000000,239.000000) scale(0.100000,-0.100000)" fill="#000000" stroke="none">
  <path d="M1990 1836 c-55 -75 -113 -142 -129 -150 -37 -20 -65 -53 -193 -233
  -73 -102 -132 -173 -181 -217 -41 -36 -79 -66 -84 -66 -5 0 -72 63 -148 141
  -134 136 -139 140 -154 121 -287 -366 -398 -506 -434 -547 l-45 -50 -31 23
  c-18 13 -39 21 -49 17 -24 -8 -498 -471 -491 -480 4 -3 112 95 240 218 129
  124 236 224 237 222 5 -5 -64 -97 -216 -288 -74 -92 -133 -169 -131 -171 2 -2
  112 81 244 184 132 104 241 187 243 185 2 -2 -38 -78 -88 -170 -50 -92 -90
  -168 -88 -170 2 -2 40 23 83 56 123 93 123 94 50 -52 -37 -72 -65 -133 -63
  -135 2 -1 41 13 88 31 46 19 91 37 100 40 10 3 42 -16 85 -50 41 -32 73 -51
  79 -46 6 4 74 59 151 121 l140 113 3 -46 c2 -26 7 -47 11 -47 4 0 25 15 47 33
  40 34 321 187 343 187 7 0 -15 -31 -49 -70 l-62 -69 22 -35 22 -36 71 40 72
  39 41 -46 41 -47 36 54 c20 30 34 56 32 59 -3 2 -24 7 -48 10 l-42 6 -27 80
  c-15 44 -32 94 -38 112 -8 23 -19 33 -41 38 -16 4 -29 9 -29 11 0 14 22 44 31
  44 10 0 91 -60 394 -291 307 -235 356 -271 363 -264 4 4 -2 14 -14 23 -11 10
  -60 47 -107 85 l-87 67 0 48 0 47 83 31 82 30 37 70 c21 38 39 74 41 79 2 6
  42 -26 87 -70 46 -44 85 -75 87 -69 2 6 -46 59 -106 118 l-109 108 15 44 c8
  25 19 44 24 42 5 -2 85 -50 179 -108 161 -98 187 -119 416 -329 135 -122 248
  -220 252 -216 4 4 -28 40 -71 82 l-78 75 26 51 c15 29 31 56 35 60 4 5 20 -7
  36 -26 15 -20 32 -33 37 -30 5 3 -8 23 -29 44 l-38 39 24 50 c13 27 26 50 29
  50 4 0 28 -18 55 -40 75 -62 79 -47 6 23 -36 34 -78 87 -94 118 l-30 56 33 42
  34 42 36 -33 c20 -18 64 -59 97 -91 34 -33 64 -54 68 -49 3 6 -39 52 -94 104
  l-100 93 0 125 0 124 50 -49 c68 -67 64 -36 -5 36 l-55 58 0 73 0 73 245 -245
  c134 -134 248 -241 252 -237 4 4 -15 30 -42 57 l-49 50 35 36 36 35 318 -326
  c176 -180 321 -322 323 -315 2 6 -67 84 -154 173 -88 89 -231 235 -319 324
  -87 90 -163 163 -168 163 -5 0 -25 -13 -44 -30 -18 -16 -39 -30 -46 -30 -6 0
  -100 88 -208 196 l-196 196 -93 -113 c-51 -63 -96 -115 -100 -117 -3 -1 -46
  41 -95 93 l-88 96 -49 -2 -48 -3 -78 84 -78 84 -38 -22 c-20 -12 -40 -22 -44
  -22 -4 0 -15 19 -24 43 -24 57 -123 170 -160 181 -21 7 -44 31 -80 85 -71 105
  -105 147 -138 171 l-30 21 -100 -135z m152 67 c14 -16 55 -71 92 -124 46 -67
  74 -99 93 -105 41 -13 119 -101 154 -174 16 -34 33 -60 37 -58 4 2 24 12 46
  23 l39 20 71 -77 c70 -76 72 -77 125 -80 54 -3 54 -3 134 -90 88 -96 89 -105
  19 -126 -50 -15 -85 -53 -181 -200 -45 -67 -87 -125 -94 -128 -8 -3 -65 27
  -127 67 -63 39 -120 73 -127 76 -6 3 -94 -58 -193 -134 -100 -76 -201 -153
  -225 -171 l-43 -32 -73 57 c-41 31 -75 58 -77 59 -2 1 9 28 24 59 27 57 27 58
  10 110 -15 50 -14 85 4 85 4 0 44 -39 89 -86 45 -47 86 -84 93 -82 6 2 -30 48
  -80 101 -51 53 -92 100 -92 106 0 16 52 131 59 131 4 0 25 -18 46 -40 37 -38
  61 -52 53 -31 -1 5 -23 30 -47 56 l-44 47 13 39 c8 22 17 42 21 45 4 2 34 -28
  66 -68 92 -114 127 -151 131 -140 2 6 -26 47 -63 91 -60 72 -65 82 -54 102 9
  18 9 41 -1 105 -12 79 -12 83 10 118 12 21 27 35 34 33 6 -2 39 -44 74 -93 59
  -84 82 -108 82 -86 0 5 -29 50 -65 100 -64 90 -104 163 -105 191 0 21 51 84
  60 74 4 -4 36 -62 70 -128 63 -124 76 -143 85 -133 3 3 -26 66 -65 141 -58
  111 -74 153 -90 234 -11 54 -22 108 -25 121 -7 30 6 28 37 -5z m-704 -817 c2
  -10 -218 -392 -244 -425 -4 -4 -80 54 -149 113 l-40 34 40 82 40 81 42 -48
  c23 -26 42 -43 43 -38 0 6 -16 66 -35 134 -19 69 -35 126 -35 129 0 2 25 -18
  55 -44 30 -26 62 -47 71 -47 9 0 36 -12 60 -26 24 -13 45 -29 49 -35 4 -6
  2 -22 -6 -38 -8 -16 -17 -37 -22 -49z"/>
</g>
</svg>